<svg width="467" height="66" viewBox="0 0 467 66" fill="none" xmlns="http://www.w3.org/2000/svg">
<g clip-path="url(#clip0_25_96)">
<path d="M3.21269 65.9695C0.981655 65.9695 0 64.9621 0 62.6725V51.9574C0 49.6679 0.981655 48.6605 3.21269 48.6605H27.2186C28.7357 48.6605 29.5389 47.4699 29.5389 46.0046C29.5389 43.8982 28.7357 43.074 27.2186 42.8908L13.8324 40.9676C5.44372 39.6855 0 36.0222 0 25.765V16.1489C0 5.70859 6.87158 0.0305176 18.473 0.0305176H43.4605C45.6916 0.0305176 46.6732 1.03792 46.6732 3.32746V14.2257C46.6732 16.5153 45.6916 17.5227 43.4605 17.5227H22.6673C21.1502 17.5227 20.2578 18.6216 20.2578 20.2701C20.2578 21.9186 21.1502 23.0176 22.6673 23.2007L35.9643 25.0324C44.353 26.3145 49.8859 29.9778 49.8859 40.235V49.851C49.8859 60.2914 42.9251 65.9695 31.413 65.9695H3.21269Z" fill="#231F20"/>
<path d="M62.826 65.9695C60.5949 65.9695 59.6133 64.9621 59.6133 62.6725V3.32746C59.6133 1.03792 60.5949 0.0305176 62.826 0.0305176H104.234C106.465 0.0305176 107.447 1.03792 107.447 3.32746V14.0425C107.447 16.3321 106.465 17.3395 104.234 17.3395H79.6033V24.3913H97.0054C99.2364 24.3913 100.218 25.3987 100.218 27.6882V37.4875C100.218 39.777 99.2364 40.7844 97.0054 40.7844H79.6033V48.6605H104.234C106.465 48.6605 107.447 49.6679 107.447 51.9574V62.6725C107.447 64.9621 106.465 65.9695 104.234 65.9695H62.826Z" fill="#231F20"/>
<path d="M186.336 65.9695C184.105 65.9695 183.123 64.9621 183.123 62.6725V3.32746C183.123 1.03792 184.105 0.0305176 186.336 0.0305176H214.804C226.494 0.0305176 231.938 4.42645 231.938 14.0425V18.4385C231.938 23.5671 230.242 26.7724 226.673 28.3293C234.348 29.062 237.917 33.5495 237.917 42.5245V50.95C237.917 61.2072 232.474 65.9695 220.604 65.9695H186.336ZM203.202 25.4903H210.788C213.108 25.4903 214.179 24.2997 214.179 21.827V19.2627C214.179 16.79 213.108 15.5994 210.788 15.5994H203.202V25.4903ZM203.202 50.4005H214.804C217.124 50.4005 218.195 49.21 218.195 46.7373V43.1656C218.195 40.6929 217.124 39.5939 214.804 39.5939H203.202V50.4005Z" fill="#231F20"/>
<path d="M246.396 62.6725V51.7743C246.396 49.4847 247.377 48.4773 249.608 48.4773H258.443V17.7058H249.608C247.377 17.7058 246.396 16.6984 246.396 14.4089V3.32746C246.396 1.03792 247.377 0.0305176 249.608 0.0305176H287.625C289.856 0.0305176 290.838 1.03792 290.838 3.32746V14.4089C290.838 16.6984 289.856 17.7058 287.625 17.7058H278.969V48.4773H287.625C289.856 48.4773 290.838 49.4847 290.838 51.7743V62.6725C290.838 64.9621 289.856 65.9695 287.625 65.9695H249.608C247.377 65.9695 246.396 64.9621 246.396 62.6725Z" fill="#231F20"/>
<path d="M420.327 65.9695C418.096 65.9695 417.114 64.9621 417.114 62.6725V51.9574C417.114 49.6679 418.096 48.6605 420.327 48.6605H444.333C445.85 48.6605 446.653 47.4699 446.653 46.0046C446.653 43.8982 445.85 43.074 444.333 42.8908L430.947 40.9676C422.558 39.6855 417.114 36.0222 417.114 25.765V16.1489C417.114 5.70859 423.986 0.0305176 435.587 0.0305176H460.575C462.806 0.0305176 463.787 1.03792 463.787 3.32746V14.2257C463.787 16.5153 462.806 17.5227 460.575 17.5227H439.782C438.264 17.5227 437.372 18.6216 437.372 20.2701C437.372 21.9186 438.264 23.0176 439.782 23.2007L453.079 25.0324C461.467 26.3145 467 29.9778 467 40.235V49.851C467 60.2914 460.039 65.9695 448.527 65.9695H420.327Z" fill="#231F20"/>
<path d="M168.22 23.8113L160.456 3.0222C159.742 0.915819 158.314 0 155.994 0H131.988C129.579 0 128.151 0.915819 127.437 3.0222L119.673 23.8113C117.263 30.222 116.192 34.8011 116.192 38.4644V62.642C116.192 64.9315 117.174 65.9389 119.405 65.9389C119.405 65.9389 129.251 66.0916 132.524 65.9389C133.252 65.9084 133.55 65.7863 134.621 64.1226C135.171 63.2678 135.26 63.0694 135.498 62.7031C137.105 60.2151 140.05 55.4223 142.072 52.8733C139.514 50.9195 134.799 46.0046 134.799 36.4191C134.799 23.2923 143.708 19.1253 143.708 19.1253C143.708 19.1253 151.993 22.987 152.231 37.1517C152.008 46.3862 147.501 51.1027 145.121 52.9496C146.906 55.346 149.673 59.4672 151.859 62.7336C152.112 63.0999 152.216 63.2373 152.633 63.8173C153.168 64.5805 153.867 65.8321 155.012 65.9542C156.366 65.9542 168.488 65.9542 168.488 65.9542C170.719 65.9542 171.701 64.9468 171.701 62.6573V38.4796C171.701 34.8164 170.63 30.2373 168.22 23.8265V23.8113Z" fill="#231F20"/>
<path d="M138.339 28.5584C138.339 29.4895 139.068 30.2374 139.975 30.2374C140.882 30.2374 141.611 29.4895 141.611 28.5584C141.611 27.6273 140.882 26.8794 139.975 26.8794C139.068 26.8794 138.339 27.6273 138.339 28.5584Z" fill="#231F20"/>
<path d="M350.361 0.427499C348.205 3.73971 344.472 5.95294 340.173 6.02926C338.611 6.05978 337.124 5.8003 335.741 5.2966C335.741 5.38818 335.756 5.47977 335.756 5.57135C335.815 8.91409 332.409 11.6921 328.155 11.7684C324.705 11.8294 321.76 10.1046 320.733 7.66247C319.648 8.01353 318.487 8.22722 317.283 8.25775C311.928 8.34933 307.392 4.82343 306.142 0.0153809H301.338C299.107 0.0153809 298.125 1.02278 298.125 3.31233V14.3937C298.125 16.6833 299.107 17.6907 301.338 17.6907H314.457V62.6574C314.457 64.9469 315.438 65.9543 317.669 65.9543H332.126C334.357 65.9543 335.339 64.9469 335.339 62.6574V17.7059H348.458C350.689 17.7059 351.67 16.6985 351.67 14.409V3.32759C351.67 1.84702 351.254 0.900672 350.347 0.427499H350.361Z" fill="#231F20"/>
<path d="M372.241 56.5518C373.802 56.6586 375.26 57.0402 376.599 57.6355C376.599 57.5439 376.599 57.4523 376.599 57.3608C376.807 54.018 380.421 51.53 384.66 51.8048C388.096 52.0337 390.907 53.9875 391.74 56.506C392.841 56.2313 394.016 56.1244 395.22 56.2007C400.768 56.5671 405.141 60.734 405.751 65.8931C407.431 65.6642 408.175 64.6415 408.175 62.642V51.9269C408.175 49.6374 407.193 48.63 404.962 48.63H380.332V40.7539H397.734C399.965 40.7539 400.947 39.7465 400.947 37.457V27.6577C400.947 25.3682 399.965 24.3608 397.734 24.3608H380.332V17.309H404.962C407.193 17.309 408.175 16.3016 408.175 14.012V3.32746C408.175 1.03792 407.193 0.0305176 404.962 0.0305176H363.554C361.323 0.0305176 360.342 1.03792 360.342 3.32746V62.6725C360.342 62.9015 360.357 63.1152 360.386 63.3136C362.513 59.0398 367.094 56.2313 372.241 56.5518Z" fill="#231F20"/>
</g>
<defs>
<clipPath id="clip0_25_96">
<rect width="467" height="66" fill="white"/>
</clipPath>
</defs>
</svg>
